<svg width="25" height="13" viewBox="0 0 25 13" fill="none" xmlns="http://www.w3.org/2000/svg">
<path fill-rule="evenodd" clip-rule="evenodd" d="M11.4966 0.00673354C9.17617 0.0877793 7.16212 0.351803 5.39005 0.807245C2.90814 1.44512 1.16268 2.43198 0.433234 3.60975C0.157045 4.05567 0.0208633 4.49279 0.00229756 4.99291C-0.017565 5.52766 0.0907435 5.97832 0.35114 6.44444C0.703004 7.07428 1.26881 7.61102 2.10719 8.11025C3.17069 8.74353 4.657 9.26758 6.41144 9.62785C7.49661 9.85068 8.84857 10.0331 9.99456 10.1112C10.1887 10.1245 10.3641 10.1383 10.3844 10.1418L10.4214 10.1484V11.5742C10.4214 12.3584 10.4255 13 10.4305 13C10.4509 13 16.454 8.82833 16.454 8.81419C16.454 8.80581 15.0985 7.85954 13.4418 6.71137L10.4296 4.62381L10.4214 5.98532C10.4141 7.18261 10.4102 7.34682 10.3885 7.34676C10.334 7.34659 10.0185 7.32163 9.73191 7.29484C7.25547 7.0633 5.03168 6.4858 3.78955 5.75166C3.43053 5.53948 3.21066 5.34632 3.13972 5.18082C3.11485 5.12277 3.11352 5.10361 3.13051 5.04703C3.21048 4.78058 3.71946 4.42913 4.53614 4.07641C6.00855 3.44049 8.17089 2.99343 10.5034 2.84269C11.2152 2.79671 11.6231 2.78495 12.5061 2.78499C13.5717 2.78505 14.25 2.81287 15.1572 2.89369C17.3904 3.09269 19.4267 3.57076 20.7675 4.21083C21.414 4.51944 21.8797 4.88971 21.8788 5.09435C21.8782 5.20585 21.7276 5.39194 21.5003 5.56186C20.9065 6.00583 19.8979 6.41643 18.5798 6.75085L18.2433 6.83624L18.2391 8.27135L18.2349 9.70647L18.8054 9.57725C20.1733 9.26745 21.0619 8.98652 21.9787 8.57398C23.765 7.77025 24.7668 6.74757 24.9737 5.51684C25.0089 5.30738 25.0087 4.90169 24.9733 4.67847C24.9212 4.34978 24.8278 4.08203 24.6539 3.76333C24.338 3.18412 23.7774 2.6372 23.0077 2.1572C21.0537 0.938606 17.6439 0.157826 13.6388 0.0118528C13.2874 -0.000960021 11.8173 -0.0044704 11.4966 0.00673354Z" fill="#1A2A80"/>
</svg>
