<svg id="Layer_1" data-name="Layer 1" xmlns="http://www.w3.org/2000/svg" viewBox="0 0 274 176.5"><defs><style>.cls-1{fill:#1a2a80;}.cls-2{fill:#26cecd;}</style></defs><title>logo_default</title><path class="cls-1" d="M150,182.29a4.44,4.44,0,0,1-2.09-.52L85.8,148.93a3.87,3.87,0,1,1,3.62-6.85l60.58,32,60.57-32a3.87,3.87,0,0,1,3.62,6.85l-62.12,32.83a4.41,4.41,0,0,1-2.07.52m-1.54-7.37h0Zm3.07,0h0" transform="translate(-13 -53.51)"/><path class="cls-1" d="M150,162.9a4.44,4.44,0,0,1-2.09-.52L85.8,129.55a3.87,3.87,0,1,1,3.62-6.85l60.58,32,60.57-32a3.87,3.87,0,0,1,3.62,6.85l-62.12,32.83a4.41,4.41,0,0,1-2.07.52m-1.54-7.37h0Zm3.07,0h0" transform="translate(-13 -53.51)"/><path class="cls-1" d="M149.89,142.68a4.43,4.43,0,0,1-2-.5L86.68,110.24a4.44,4.44,0,0,1,0-7.87l.47-.25,59.54-31.47a6.9,6.9,0,0,1,6.46,0l60,31.72a4.44,4.44,0,0,1,0,7.86L152,142.18a4.47,4.47,0,0,1-2.06.5m-54.05-36.4,54.06,28.23L204,106.29,149.9,77.71Z" transform="translate(-13 -53.51)"/><path class="cls-2" d="M118.63,110.77a3.87,3.87,0,0,1-1.81-7.3l31-16.38a4.43,4.43,0,0,1,4.16,0l30.44,16.09A3.87,3.87,0,0,1,178.8,110L149.89,94.75l-29.45,15.57a3.85,3.85,0,0,1-1.81.45m29.72-16.83h0Zm3.1,0h0" transform="translate(-13 -53.51)"/><path class="cls-2" d="M118.63,77.71a3.87,3.87,0,0,1-1.81-7.3l31-16.38A4.44,4.44,0,0,1,152,54l30.45,16.1A3.87,3.87,0,0,1,178.8,77L149.89,61.7,120.44,77.26a3.85,3.85,0,0,1-1.81.45" transform="translate(-13 -53.51)"/><path class="cls-2" d="M13,196.31A2.89,2.89,0,0,1,14.13,194a3.74,3.74,0,0,1,2.41-.93,3.42,3.42,0,0,1,2.32.93,3.11,3.11,0,0,1,0,4.65,3.42,3.42,0,0,1-2.32.93,3.74,3.74,0,0,1-2.41-.93A2.89,2.89,0,0,1,13,196.31" transform="translate(-13 -53.51)"/><rect class="cls-1" x="0.35" y="151.57" width="5.99" height="24.29"/><path class="cls-1" d="M33.8,205.08l.52,5.17-.23-.46a10.76,10.76,0,0,1,3.84-4.21A10.24,10.24,0,0,1,43.51,204a9.9,9.9,0,0,1,3.6.61,6.72,6.72,0,0,1,2.64,1.83,5.85,5.85,0,0,1,1.37,3l-.29.17a10.53,10.53,0,0,1,3.89-4.13A9.86,9.86,0,0,1,59.84,204a7.91,7.91,0,0,1,5.67,2,7.09,7.09,0,0,1,2.18,5.26v18.07H61.76V213.57a6,6,0,0,0-.84-3.05,3.12,3.12,0,0,0-2.76-1.31,5.74,5.74,0,0,0-3.69,1.28A8.39,8.39,0,0,0,52,213.8a11.69,11.69,0,0,0-.93,4.36v11.22h-6V213.57a5.84,5.84,0,0,0-.87-3.05,3.26,3.26,0,0,0-2.85-1.31,5.51,5.51,0,0,0-3.63,1.28,8.61,8.61,0,0,0-2.41,3.34,11.15,11.15,0,0,0-.87,4.39v11.16h-6V205.08Z" transform="translate(-13 -53.51)"/><path class="cls-1" d="M82.21,205.08l.52,5.17-.23-.46a10.76,10.76,0,0,1,3.84-4.21A10.24,10.24,0,0,1,91.92,204a9.9,9.9,0,0,1,3.6.61,6.72,6.72,0,0,1,2.64,1.83,5.85,5.85,0,0,1,1.37,3l-.29.17a10.53,10.53,0,0,1,3.89-4.13,9.86,9.86,0,0,1,5.11-1.45,7.91,7.91,0,0,1,5.67,2,7.09,7.09,0,0,1,2.18,5.26v18.07h-5.93V213.57a6,6,0,0,0-.84-3.05,3.12,3.12,0,0,0-2.76-1.31,5.74,5.74,0,0,0-3.69,1.28,8.39,8.39,0,0,0-2.47,3.31,11.69,11.69,0,0,0-.93,4.36v11.22h-6V213.57a5.84,5.84,0,0,0-.87-3.05,3.26,3.26,0,0,0-2.85-1.31,5.51,5.51,0,0,0-3.63,1.28,8.61,8.61,0,0,0-2.41,3.34,11.15,11.15,0,0,0-.87,4.39v11.16h-6V205.08Z" transform="translate(-13 -53.51)"/><path class="cls-2" d="M124.92,196.31a2.89,2.89,0,0,1,1.13-2.32,3.74,3.74,0,0,1,2.41-.93,3.42,3.42,0,0,1,2.32.93,3.11,3.11,0,0,1,0,4.65,3.42,3.42,0,0,1-2.32.93,3.74,3.74,0,0,1-2.41-.93,2.89,2.89,0,0,1-1.13-2.32" transform="translate(-13 -53.51)"/><rect class="cls-1" x="112.27" y="151.57" width="5.99" height="24.29"/><path class="cls-1" d="M145.73,205.08l.52,5.52-.17-.81a9.18,9.18,0,0,1,3.75-4.18,11.36,11.36,0,0,1,6-1.57,8.11,8.11,0,0,1,5.67,2,7,7,0,0,1,2.3,5.29v18h-6V213.51a5,5,0,0,0-1.08-3.17,4.1,4.1,0,0,0-3.28-1.19,6.15,6.15,0,0,0-3.66,1.16,7.58,7.58,0,0,0-2.53,3.22,11.87,11.87,0,0,0-.9,4.79v11h-6V205.08Z" transform="translate(-13 -53.51)"/><path class="cls-1" d="M184.43,230a14.75,14.75,0,0,1-7.23-1.68,11.68,11.68,0,0,1-4.68-4.62,13.61,13.61,0,0,1-1.63-6.71,12.25,12.25,0,0,1,1.83-6.57,13.45,13.45,0,0,1,4.91-4.71,13.79,13.79,0,0,1,6.92-1.74,11.73,11.73,0,0,1,8.11,2.88,14.43,14.43,0,0,1,4.33,8l-19.76,6.8-1.45-3.37,15.87-5.81-1.22.81a8.27,8.27,0,0,0-2.21-3.17,5.93,5.93,0,0,0-4.13-1.36,7,7,0,0,0-3.78,1,7.33,7.33,0,0,0-2.59,2.79,8.48,8.48,0,0,0-1,4.1,8.77,8.77,0,0,0,1,4.33,7.28,7.28,0,0,0,2.79,2.85,7.85,7.85,0,0,0,4,1,8.28,8.28,0,0,0,3-.55,11.78,11.78,0,0,0,2.67-1.42l2.79,4.42a19.08,19.08,0,0,1-4.16,2,13.68,13.68,0,0,1-4.39.76" transform="translate(-13 -53.51)"/><path class="cls-1" d="M209,205.08l.52,5.52-.17-.81a9.18,9.18,0,0,1,3.75-4.18,11.36,11.36,0,0,1,6-1.57,8.11,8.11,0,0,1,5.67,2,7,7,0,0,1,2.3,5.29v18h-6V213.51a5,5,0,0,0-1.08-3.17,4.1,4.1,0,0,0-3.28-1.19,6.15,6.15,0,0,0-3.66,1.16,7.58,7.58,0,0,0-2.53,3.22,11.87,11.87,0,0,0-.9,4.79v11h-6V205.08Z" transform="translate(-13 -53.51)"/><path class="cls-1" d="M256.14,227.16a13.21,13.21,0,0,1-3.92,2.06,14.36,14.36,0,0,1-4.68.78,14.84,14.84,0,0,1-7-1.6A11.71,11.71,0,0,1,235.8,224a13.1,13.1,0,0,1-1.69-6.8,12.49,12.49,0,0,1,1.8-6.77,12.35,12.35,0,0,1,4.77-4.45,13.22,13.22,0,0,1,6.28-1.57,15.17,15.17,0,0,1,5.35.87,13.9,13.9,0,0,1,4,2.27l-3,3.84a12.69,12.69,0,0,0-2.47-1.42,8.19,8.19,0,0,0-3.4-.67,6.91,6.91,0,0,0-3.72,1,7.56,7.56,0,0,0-2.67,2.85,8.19,8.19,0,0,0-1,4,8,8,0,0,0,1,4,7.5,7.5,0,0,0,2.82,2.85,8.64,8.64,0,0,0,6.92.58,8.47,8.47,0,0,0,2.27-1.22Z" transform="translate(-13 -53.51)"/><path class="cls-1" d="M274.45,230a14.75,14.75,0,0,1-7.23-1.68,11.68,11.68,0,0,1-4.68-4.62,13.61,13.61,0,0,1-1.63-6.71,12.25,12.25,0,0,1,1.83-6.57,13.45,13.45,0,0,1,4.91-4.71,13.79,13.79,0,0,1,6.92-1.74,11.73,11.73,0,0,1,8.11,2.88,14.42,14.42,0,0,1,4.33,8l-19.76,6.8-1.45-3.37,15.87-5.81-1.22.81a8.27,8.27,0,0,0-2.21-3.17,5.93,5.93,0,0,0-4.13-1.36,7,7,0,0,0-3.78,1,7.33,7.33,0,0,0-2.59,2.79,8.48,8.48,0,0,0-1,4.1,8.77,8.77,0,0,0,1,4.33,7.28,7.28,0,0,0,2.79,2.85,7.85,7.85,0,0,0,4,1,8.28,8.28,0,0,0,3-.55,11.78,11.78,0,0,0,2.67-1.42l2.79,4.42a19.08,19.08,0,0,1-4.16,2,13.68,13.68,0,0,1-4.39.76" transform="translate(-13 -53.51)"/></svg>